# xmcd
#
# Track frame offsets:
# 150
# 11907
# 29855
# 45814
# 64672
# 89270
# 109835
# 135267
# 151517
# 170787
# 199710
# 203675
# 233857
# 263980
# 283437
# 302602
# 321142
#
# Disc length: 4526 seconds
#
#
# Revision: 0
# Processed by: cddbd v1.5PL3 Copyright (c) Steve Scherf et al.
# Submitted via: FreeRIP 2.51 
#
DISCID=e911ac11
DTITLE=Quincy Jones - Q Love
DYEAR=2004
DGENRE=R&B
TTITLE0=Love Theme From "The Getaway"
TTITLE1=Body Heat feat. Leon Wave and Bruce Fisher
TTITLE2=I'm Going to Miss You in the Morning feat Vandross and Patti Austin
TTITLE3=Love Me by Name Patti Austin
TTITLE4=Superwoman feat. Patti Austin
TTITLE5=Just Once feat. James Ingram
TTITLE6=Turn Out the Lamplight feat. Geoge Benson
TTITLE7=Baby, Come to Me feat. Patti Austin and James Ingram
TTITLE8=How Do You Keep the Music Playing
TTITLE9=The Places You Find Love
TTITLE10=Prelude to the Garden
TTITLE11=The Secret Garden feat Al B Sure, El DeBarge and More
TTITLE12=Sax in the Garden
TTITLE13=Moody's Mood For Love Feat Rachelle Ferrell and more
TTITLE14=I'm Yours feat. Sieadah Garrett and El DeBarge
TTITLE15=Everything feat. Tevin Campbell
TTITLE16=Velas feat. Toots Thilemans
EXTD=
EXTT0=
EXTT1=
EXTT2=
EXTT3=
EXTT4=
EXTT5=
EXTT6=
EXTT7=
EXTT8=
EXTT9=
EXTT10=
EXTT11=
EXTT12=
EXTT13=
EXTT14=
EXTT15=
EXTT16=
PLAYORDER=
